<svg viewBox="0 0 1080 360" xmlns="http://www.w3.org/2000/svg">
  <!-- Amazon Logo -->
  <g transform="translate(0, 0)">
    <!-- A -->
    <path d="M 120 80 L 180 260 L 160 260 L 140 200 L 80 200 L 60 260 L 40 260 L 100 80 Z M 130 60 L 90 180 L 170 180 Z" fill="#141414"/>
    
    <!-- M -->
    <path d="M 280 80 L 340 180 L 400 80 L 420 80 L 340 220 L 260 80 Z" fill="#141414"/>
    
    <!-- A -->
    <path d="M 500 80 L 560 260 L 540 260 L 520 200 L 460 200 L 440 260 L 420 260 L 480 80 Z M 510 60 L 470 180 L 550 180 Z" fill="#141414"/>
    
    <!-- Z -->
    <path d="M 620 80 L 720 80 L 640 170 L 720 260 L 620 260 L 540 170 L 620 80 Z" fill="#141414"/>
    
    <!-- O -->
    <ellipse cx="800" cy="170" rx="60" ry="100" fill="none" stroke="#141414" stroke-width="20"/>
    
    <!-- N -->
    <path d="M 900 80 L 920 80 L 980 240 L 980 80 L 1000 80 L 1000 260 L 980 260 L 920 100 L 920 260 L 900 260 Z" fill="#141414"/>
  </g>
  
  <!-- Orange Smile -->
  <path d="M 300 320 Q 400 360 500 320" stroke="#FF9900" stroke-width="40" fill="none" stroke-linecap="round"/>
</svg>